HIERARCHY
ROOT Hips
{
  OFFSET 0 0 0
  CHANNELS 6 Xposition Yposition Zposition Zrotation Yrotation Xrotation
  JOINT LeftThigh
  {
    OFFSET 8.409438 0 -5.917753
    CHANNELS 3 Zrotation Yrotation Xrotation
    JOINT LeftLeg
    {
      OFFSET 0 0 -42.358652
      CHANNELS 3 Zrotation Yrotation Xrotation
      JOINT LeftFoot
      {
        OFFSET 0 0 -39.357303
        CHANNELS 3 Zrotation Yrotation Xrotation
      }
    }
  }
  JOINT RightThigh
  {
    OFFSET -8.409438 0 -5.917753
    CHANNELS 3 Zrotation Yrotation Xrotation
    JOINT RightLeg
    {
      OFFSET 0 0 -42.358652
      CHANNELS 3 Zrotation Yrotation Xrotation
      JOINT RightFoot
      {
        OFFSET 0 0 -39.357303
        CHANNELS 3 Zrotation Yrotation Xrotation
      }
    }
  }
  JOINT SpineLow
  {
    OFFSET 0 0 4.719101
    CHANNELS 3 Zrotation Yrotation Xrotation
    JOINT SpineMid
    {
      OFFSET 0 0 12.899191
      CHANNELS 3 Zrotation Yrotation Xrotation
      JOINT Chest
      {
        OFFSET 0 0 12.899191
        CHANNELS 3 Zrotation Yrotation Xrotation
        JOINT LeftShoulder
        {
          OFFSET 7.550562 1.41573 9.438202
          CHANNELS 3 Zrotation Yrotation Xrotation
          JOINT LeftArm
          {
            OFFSET 9.155056 0 4.247191
            CHANNELS 3 Zrotation Yrotation Xrotation
            JOINT LeftForearm
            {
              OFFSET 0 0 25.771955
              CHANNELS 3 Zrotation Yrotation Xrotation
              JOINT LeftHand
              {
                OFFSET 0 0 25.197169
                CHANNELS 3 Zrotation Yrotation Xrotation
              }
            }
          }
        }
        JOINT RightShoulder
        {
          OFFSET -7.550562 1.41573 9.438202
          CHANNELS 3 Zrotation Yrotation Xrotation
          JOINT RightArm
          {
            OFFSET -9.155056 0 4.247191
            CHANNELS 3 Zrotation Yrotation Xrotation
            JOINT RightForearm
            {
              OFFSET 0 0 -25.771955
              CHANNELS 3 Zrotation Yrotation Xrotation
              JOINT RightHand
              {
                OFFSET 0 0 -25.197169
                CHANNELS 3 Zrotation Yrotation Xrotation
              }
            }
          }
        }
        JOINT Neck
        {
          OFFSET 0 0 15.101124
          CHANNELS 3 Zrotation Yrotation Xrotation
          JOINT Head
          {
            OFFSET 0 0 11.325843
            CHANNELS 3 Zrotation Yrotation Xrotation
            End Site
            {
              OFFSET 0 0 14.157303
            }
          }
        }
      }
    }
  }
}
MOTION
Frames: 17
Frame Time: 0.0
0.0  89.887642  0.0  12.629968  -66.188211  -112.015868  47.187439  -39.77195  -31.702057  21.950584  23.104587  77.423973  -4.674455  0.056009  -1.672723  -23.136  12.071291  -29.220626  21.090321  13.89009  64.641636  12.286515  7.340688  -6.141694  0.23347  1.681346  0.973749  0.706876  4.585466  2.681839  0.706876  4.585466  2.681839  -7.074741  23.219912  11.75752  -90.120534  60.489523  -57.368293  -40.003157  -3.343804  80.657907  49.060355  -10.357698  26.752382  -2.414993  -1.513378  24.315282  129.953721  31.927147  44.864221  -2.860727  8.384106  -79.568988  90.869122  14.011924  -26.735675  1.4542  -8.741144  10.94006  1.246584  -6.532401  8.210024  
0.0  89.887642  0.0  12.892628  -66.210632  -112.320419  47.429764  -39.668612  -31.697657  21.743424  23.038244  77.289344  -4.632716  0.089038  -1.604496  -22.962083  12.21427  -29.112758  20.925782  14.102606  64.586968  12.287592  7.415867  -6.226361  0.275499  1.691545  1.018885  0.825485  4.611026  2.808478  0.825485  4.611027  2.808478  -7.28877  22.916443  11.53726  -90.545074  60.897799  -57.588409  -40.170137  -3.752878  80.47453  48.831137  -10.5898  26.881526  -2.478991  -1.65289  24.143674  129.809351  31.808908  44.785844  -2.839077  8.377568  -79.381658  90.788482  13.951082  -26.624533  1.661196  -8.769601  10.510617  1.395839  -6.551043  7.891544  
0.0  89.887642  0.0  13.056625  -66.308621  -112.579313  47.634901  -39.732638  -31.595078  21.67369  22.985124  77.222802  -4.668991  0.084044  -1.59509  -22.405104  12.330226  -28.871824  20.640251  14.332438  64.575883  12.234828  7.435173  -6.263098  0.326144  1.701995  1.081295  0.968934  4.636456  2.983047  0.968934  4.636456  2.983047  -7.450002  22.59754  11.230813  -90.71402  61.258864  -57.557889  -40.321266  -3.989081  80.478611  48.652773  -10.693024  26.863821  -2.625736  -1.778905  23.741612  129.809312  31.638035  44.698017  -2.882878  8.348576  -79.310498  90.588702  13.911834  -26.549529  1.76857  -8.84462  10.070841  1.471055  -6.606575  7.563883  
0.0  89.887642  0.0  13.384977  -66.479528  -112.930051  47.77661  -39.763823  -31.489965  21.588206  23.042399  77.090541  -4.58496  0.121103  -1.534655  -21.680308  12.445842  -28.72893  20.277032  14.485984  64.618594  12.214006  7.425365  -6.230323  0.386979  1.725454  1.135495  1.140387  4.696817  3.136189  1.140387  4.696817  3.136189  -7.822037  22.131864  10.952179  -90.849977  61.266932  -57.878968  -40.313888  -3.934756  80.330063  48.764163  -10.962216  26.704453  -2.768919  -2.051382  23.515179  130.020624  31.419741  44.820177  -3.104537  8.384483  -79.196179  90.387574  13.911905  -26.491708  1.984909  -8.906214  9.610212  1.627219  -6.65055  7.222271  
0.0  89.887642  0.0  13.698048  -66.627543  -113.25086  47.780487  -39.858137  -31.30905  21.668528  23.106002  77.066479  -4.53152  0.129283  -1.507743  -20.878616  12.542347  -28.595849  20.013196  14.50668  64.78972  12.089766  7.451286  -6.21473  0.422211  1.744281  1.174097  1.240514  4.74582  3.244804  1.240514  4.74582  3.244804  -7.873421  21.837268  10.734991  -90.578281  61.251101  -57.687443  -40.323226  -3.808756  80.306532  48.67848  -11.0777  26.611126  -2.799918  -2.148309  23.282706  130.098345  31.353873  44.813499  -3.217211  8.476149  -79.197448  90.185805  13.977102  -26.518032  2.127342  -8.972481  9.236402  1.729305  -6.699195  6.944608  
0.0  89.887642  0.0  13.946283  -66.641299  -113.42797  47.55375  -39.860337  -31.170912  21.639708  23.31888  76.89619  -4.303386  0.222863  -1.39191  -20.179147  12.670536  -28.567315  19.834174  14.37921  64.963783  11.837689  7.436791  -6.168728  0.425429  1.76087  1.191911  1.251463  4.790635  3.294198  1.251463  4.790636  3.294198  -7.956488  21.526284  10.592283  -90.364607  61.041278  -57.681352  -40.162367  -3.609613  80.134928  48.769193  -11.372144  26.522347  -2.635563  -2.24574  23.355215  130.460391  31.225307  45.07843  -3.783271  8.442485  -79.09864  90.198785  14.141284  -26.723844  2.318459  -8.989007  8.898678  1.867585  -6.709879  6.694689  
0.0  89.887642  0.0  14.102642  -66.710047  -113.582335  47.400238  -39.95769  -31.060938  21.729089  23.443561  76.895735  -4.146993  0.250141  -1.31494  -19.648388  12.752372  -28.509863  19.57136  14.344693  65.087405  11.638144  7.443511  -6.154653  0.410975  1.760509  1.193279  1.211982  4.79035  3.296889  1.211982  4.79035  3.296889  -7.774857  21.370913  10.549757  -89.932143  60.883564  -57.485134  -40.105428  -3.568407  80.105171  48.753706  -11.524987  26.502506  -2.517204  -2.218786  23.392383  130.520316  31.201739  45.072446  -3.845938  8.537215  -79.114124  90.152438  14.261955  -26.909397  2.504819  -8.967617  8.679581  2.003536  -6.691959  6.533458  
0.0  89.887642  0.0  13.833981  -66.513303  -113.248999  47.056787  -39.999917  -31.12435  21.787704  23.577414  76.895606  -3.967734  0.275794  -1.214583  -19.700934  12.732745  -28.568327  19.842004  14.266531  65.052841  11.344533  7.122435  -6.05166  0.334806  1.741904  1.181358  1.001692  4.74352  3.258363  1.001692  4.74352  3.258363  -7.514934  21.261028  10.528414  -89.756132  60.604232  -57.430754  -39.926546  -3.453236  80.077423  48.925924  -11.610783  26.506157  -2.318364  -2.230531  23.565828  131.086407  30.885802  45.437086  -4.421552  8.509898  -79.067934  90.177249  14.330369  -27.010356  2.74625  -8.885563  8.459993  2.179924  -6.627913  6.372557  
0.0  89.887642  0.0  13.808583  -66.562077  -113.222908  47.017925  -40.047543  -31.179769  21.817912  23.64229  76.952338  -3.864411  0.286367  -1.148857  -19.83259  12.659329  -28.602491  19.968766  14.239699  64.977784  11.41496  7.110175  -5.991923  0.320916  1.733579  1.175527  0.962835  4.72155  3.241243  0.962835  4.721551  3.241243  -7.408779  21.156392  10.500447  -89.379763  60.391492  -57.262243  -39.863714  -3.482316  80.006108  48.819065  -11.579758  26.63171  -2.295021  -2.216706  23.614755  130.956957  30.860067  45.328622  -4.323364  8.570285  -79.087822  90.182437  14.384335  -27.083291  2.904967  -8.837854  8.285355  2.295554  -6.590716  6.244086  
0.0  89.887642  0.0  13.659978  -66.537433  -113.009132  47.052974  -40.035341  -31.339003  21.803088  23.702678  76.999809  -3.810446  0.281183  -1.091653  -19.751184  12.7066  -28.702905  19.661453  14.030306  64.866682  11.45301  7.007518  -5.844676  0.302538  1.726819  1.18663  0.912986  4.703821  3.270202  0.912986  4.703821  3.270203  -7.353099  20.988175  10.338095  -89.319495  60.132892  -57.22335  -39.796951  -3.362996  79.932232  48.858138  -11.470099  26.682453  -2.335176  -2.309775  23.575974  130.990622  30.705268  45.376712  -4.419786  8.551509  -79.034689  90.178613  14.377455  -27.060898  3.060246  -8.79624  8.010561  2.407254  -6.558695  6.040576  
0.0  89.887642  0.0  13.579565  -66.692494  -112.936354  47.382006  -40.053478  -31.557134  21.65929  23.844574  77.000597  -3.717963  0.284779  -1.026989  -20.089235  12.46752  -28.752014  20.184436  13.632718  64.70213  11.446865  7.000298  -5.709194  0.32281  1.726348  1.216072  0.970537  4.701066  3.352235  0.970537  4.701066  3.352235  -7.45567  20.773005  10.111106  -89.062236  59.986785  -57.1228  -39.853181  -3.249487  79.844367  48.831412  -11.399783  26.659233  -2.402507  -2.429646  23.409125  130.735361  30.654385  45.239603  -4.267564  8.490183  -78.987445  90.165139  14.338873  -27.00479  3.159605  -8.803722  7.749085  2.477906  -6.564285  5.846323  
0.0  89.887642  0.0  13.553206  -66.894646  -112.843864  47.941847  -40.006527  -31.878839  21.50259  23.957813  77.037912  -3.674816  0.247331  -0.990592  -20.494911  12.201732  -28.918252  20.787414  13.168962  64.530824  11.379479  7.049284  -5.56276  0.338761  1.727103  1.251869  1.016776  4.701731  3.45138  1.016777  4.701731  3.451381  -7.548133  20.527952  9.777918  -88.95557  59.858096  -57.183927  -40.012217  -3.061481  79.635472  48.888208  -11.413566  26.752436  -2.451857  -2.630143  23.236378  130.426071  30.617355  45.168327  -4.048381  8.399815  -78.836598  90.22757  14.315246  -26.898601  3.319319  -8.79792  7.425018  2.592667  -6.559589  5.606064  
0.0  89.887642  0.0  13.466174  -67.105563  -112.724879  48.576528  -39.964789  -32.235322  21.27086  24.121878  77.012966  -3.629274  0.232201  -0.944157  -20.5954  11.974487  -28.97845  21.079647  12.931245  64.417515  11.28836  7.076903  -5.470921  0.374097  1.737078  1.295963  1.117175  4.726344  3.574818  1.117175  4.726344  3.574819  -7.75365  20.177893  9.471145  -88.857228  59.807803  -57.252565  -40.126128  -2.987803  79.562252  48.901183  -11.401223  26.658108  -2.525951  -2.792111  23.023477  130.151672  30.599117  45.070697  -3.875925  8.219371  -78.688717  90.305148  14.293727  -26.715494  3.376034  -8.852954  7.127275  2.631365  -6.601745  5.384197  
0.0  89.887642  0.0  13.423006  -67.197154  -112.627662  49.078027  -39.857405  -32.548212  21.030125  24.2393  76.968854  -3.600423  0.235324  -0.888968  -20.571973  11.922076  -29.002491  21.157602  12.821111  64.285857  11.341779  7.061718  -5.411992  0.393315  1.751141  1.351705  1.174573  4.762678  3.729114  1.174574  4.762678  3.729114  -7.988121  19.798051  9.117864  -88.856185  59.786052  -57.447355  -40.268354  -2.89816  79.446413  48.948211  -11.45177  26.639642  -2.770668  -3.054156  22.802026  129.953391  30.483839  45.09326  -3.780528  7.949383  -78.431839  90.549777  14.27725  -26.515984  3.446199  -8.874862  6.747015  2.678519  -6.619403  5.100671  
0.0  89.887642  0.0  13.327942  -67.146891  -112.524364  49.352339  -39.745743  -32.761281  20.847542  24.365455  76.958842  -3.633054  0.199748  -0.89603  -20.706478  11.97981  -28.969343  21.019307  12.798886  64.074433  11.397593  7.031511  -5.38254  0.40373  1.770071  1.391266  1.207062  4.813043  3.838619  1.207062  4.813042  3.838619  -8.226947  19.438981  8.934091  -88.760264  59.825806  -57.587363  -40.38012  -2.800217  79.420413  48.974433  -11.455167  26.645584  -2.810345  -3.235343  22.699787  129.574726  30.421173  45.062222  -3.60796  7.609506  -78.247357  90.780234  14.235019  -26.244807  3.453413  -8.885021  6.464841  2.679857  -6.628458  4.889602  
0.0  89.887642  0.0  13.227548  -66.841837  -112.362031  49.246416  -39.53852  -32.903105  20.745415  24.466873  76.965019  -3.660043  0.166575  -0.890956  -21.040078  12.231508  -28.97904  21.11532  12.62963  63.701536  11.435427  6.976348  -5.367149  0.338815  1.776037  1.407038  1.030911  4.832866  3.877207  1.030911  4.832866  3.877206  -8.1777  19.276496  8.863434  -88.595908  59.870858  -57.654084  -40.452448  -2.671856  79.389907  49.001141  -11.445015  26.743575  -2.636527  -3.296972  22.694486  129.008004  30.403915  45.011115  -3.323095  7.438292  -78.101904  90.84457  14.187106  -25.885116  3.614784  -8.783406  6.219443  2.796104  -6.551936  4.707898  
0.0  89.887642  0.0  13.01181  -66.279747  -111.985214  48.887432  -39.190132  -33.060733  20.652376  24.591755  76.975161  -3.688316  0.104786  -0.898633  -21.956528  12.415733  -29.139753  21.004076  12.628991  63.273149  11.565271  6.940059  -5.328343  0.301364  1.789856  1.38352  0.927514  4.873185  3.810356  0.927514  4.873185  3.810356  -8.505204  19.16814  9.058643  -88.052215  59.906902  -57.39397  -40.494741  -2.49254  79.303498  49.035532  -11.451787  26.894136  -2.676649  -3.332728  22.934832  128.435284  30.405287  45.023862  -3.301503  7.191269  -78.096161  90.824368  14.061357  -25.259969  3.513303  -8.709969  6.117798  2.717988  -6.49842  4.630054  
